<svg width="65" height="65" viewBox="0 0 65 65" fill="none" xmlns="http://www.w3.org/2000/svg">
<path fill-rule="evenodd" clip-rule="evenodd" d="M16.8438 11.209L53.177 11.6947C52.7213 12.9998 51.3038 15.152 50.4977 16.4764L42.0845 30.8437C40.2196 34.0513 32.2737 48.0385 30.7948 49.8269C29.6552 47.2642 27.571 44.5584 26.3986 41.972C26.0399 42.3228 26.0876 42.2559 25.704 42.7957L23.9312 45.9298C23.758 46.8715 30.2902 57.7394 30.871 58.493L45.7905 33.0915C46.7487 31.4681 60.3109 8.63429 60.6597 7.40654L14.4916 6.94336L16.8438 11.209Z" fill="#FEFEFE"/>
<path fill-rule="evenodd" clip-rule="evenodd" d="M8.52014 57.4714L29.2883 58.4347C28.9236 57.3359 24.8965 50.6933 24.2365 50.009L17.2493 49.6603C16.5819 47.215 18.6932 28.1635 17.974 25.8548L10.0056 25.4781L8.52014 57.4714Z" fill="#FEFEFE"/>
<path fill-rule="evenodd" clip-rule="evenodd" d="M21.4896 19.4143L39.089 19.7178C38.5871 21.1375 33.6181 29.263 32.5027 31.1859C29.582 36.2194 27.9679 37.2879 29.2234 39.4153C29.7452 40.2993 30.374 41.6251 31.0038 42.2218L42.6478 22.3474C43.8569 20.2472 45.7374 17.567 46.6407 15.4156C38.7171 15.3254 26.6352 14.8902 19.1181 15.1644L21.4896 19.4143Z" fill="#FEFEFE"/>
</svg>
