<?xml version="1.0" encoding="UTF-8"?>
<!DOCTYPE svg PUBLIC "-//W3C//DTD SVG 1.1//EN" "http://www.w3.org/Graphics/SVG/1.1/DTD/svg11.dtd">
<!-- Creator: CorelDRAW 2019 (64 Bit) -->
<svg xmlns="http://www.w3.org/2000/svg" xml:space="preserve" width="43.3492mm" height="43.3492mm" version="1.1" style="shape-rendering:geometricPrecision; text-rendering:geometricPrecision; image-rendering:optimizeQuality; fill-rule:evenodd; clip-rule:evenodd"
viewBox="0 0 43349.2 43349.2"
 xmlns:xlink="http://www.w3.org/1999/xlink"
 xmlns:xodm="http://www.corel.com/coreldraw/odm/2003">
 <defs>
  <style type="text/css">
   <![CDATA[
    .fil0 {fill:#001450}
    .fil1 {fill:#FEFEFE}
    .fil2 {fill:white;fill-rule:nonzero}
   ]]>
  </style>
 </defs>
 <g id="Camada_x0020_1">
  <metadata id="CorelCorpID_0Corel-Layer"/>
  <g id="_2542777373472">
   <g>
    <path class="fil0" d="M1031.2 6581.4l0 30186.2c0,2641.3 2042.6,4479.4 4674,4479.4l31938.8 0c2513.2,0 4674,-1844.6 4674,-4284.6l0 -30381c0,-2675.6 -2020.1,-4479.2 -4674,-4479.2l-31938.8 0c-2653.9,0 -4674,1803.6 -4674,4479.2z"/>
    <path class="fil1" d="M11233.3 7475.4l24231 323.9c-303.9,870.4 -1249.2,2305.7 -1786.8,3189l-5610.9 9581.7c-1243.7,2139.2 -6542.9,11467.4 -7529.2,12660.1 -760,-1709.1 -2150,-3513.6 -2931.9,-5238.5 -239.2,233.9 -207.4,189.3 -463.2,549.3l-1182.3 2090.2c-115.5,628 4240.9,7875.9 4628.2,8378.5l9950 -16940.5c639,-1082.7 9683.8,-16310.8 9916.4,-17129.6l-30790 -308.9 1568.7 2844.8z"/>
    <path class="fil1" d="M5682.2 38328.3l13850.5 642.4c-243.2,-732.8 -2928.9,-5162.8 -3369.1,-5619.2l-4659.8 -232.5c-445.1,-1630.8 962.9,-14336.5 483.3,-15876.2l-5314.2 -251.2 -990.7 21336.7z"/>
    <path class="fil1" d="M14331.7 12947.6l11737.2 202.4c-334.7,946.8 -3648.6,6365.8 -4392.5,7648.2 -1947.8,3356.9 -3024.3,4069.5 -2187,5488.3 348,589.5 767.4,1473.7 1187.4,1871.7l7765.5 -13254.5c806.4,-1400.6 2060.5,-3188.1 2662.9,-4622.9 -5284.3,-60.1 -13341.9,-350.4 -18355.1,-167.5l1581.6 2834.3z"/>
   </g>
   <polygon class="fil2" points="38096.6,38600.3 38096.6,37918.2 37427.7,37238.9 37659.4,37238.9 38190.5,37776.4 38718.6,37238.9 38952.4,37238.9 38280.8,37920.8 38280.8,38600.3 "/>
   <polygon class="fil2" points="35237.5,38600.3 35237.5,37238.9 35334.2,37238.9 36297.1,38256.4 36297.1,37238.9 36481.5,37238.9 36481.5,38600.3 36387.4,38600.3 35421.9,37582.8 35421.9,38600.3 "/>
   <path class="fil2" d="M32851.7 38600.3l727 -1361.4 153.3 0 735.2 1361.4 -200.4 0 -201.3 -366.2 -819.8 0 -196.3 366.2 -197.7 0zm478.4 -525.4l653.2 0 -327.8 -602.8 -325.4 602.8z"/>
   <path class="fil2" d="M30934.9 38600.3l0 -1361.4 851.2 0c144.2,0 257.4,32.8 339.9,98.5 83.1,65.6 124.4,155.7 124.4,269.7 0,118.3 -39.9,214.3 -120.2,287.2 -79.8,73.3 -186.7,109.9 -319.7,109.9l-691.3 0 0 596.1 -184.3 0zm184.3 -755.2l655 0c93.1,0 163.8,-19 211.5,-56.8 48.2,-37.5 72,-93.1 72,-166.3 0,-71.2 -23.8,-127.2 -72,-166.8 -47.7,-40 -115.1,-59.8 -202.2,-59.8l-664.3 0 0 449.7z"/>
   <polygon class="fil2" points="28488.9,38600.3 28488.9,37238.9 28659.6,37238.9 29259.5,38072.4 29862.3,37238.9 30030.1,37238.9 30030.1,38600.3 29848.5,38600.3 29848.5,37537.3 29259.5,38342.6 28670.5,37537.3 28670.5,38600.3 "/>
   <path class="fil2" d="M26710.3 38635.6c-222.5,0 -406,-67.3 -550.5,-201.6 -144.4,-134.3 -216.9,-304.9 -216.9,-511.5 0,-207.1 72.5,-378.1 217.9,-512.4 144.8,-134.2 327.9,-201.6 549.5,-201.6 222,0 405.9,67.4 552.3,202.4 145.9,134.9 218.7,305.4 218.7,511.6 0,206.6 -72.8,377.2 -218.2,511.5 -145.5,134.3 -329.9,201.6 -552.8,201.6zm0.5 -159c166.4,0 304.5,-52.3 414.2,-156.7 109.3,-104.4 163.8,-237.1 163.8,-397.4 0,-160.8 -54.5,-293.9 -163.3,-398.2 -108.8,-104.4 -247.3,-156.6 -414.7,-156.6 -166.5,0 -304.6,52.5 -414.2,157.4 -109.1,104.8 -163.9,237.5 -163.9,397.4 0,160.3 54.8,293 163.9,397.4 109.6,104.4 247.7,156.7 414.2,156.7z"/>
   <path class="fil2" d="M25010.8 38165.8l148.6 101.1c-67.9,118.2 -161.5,209.7 -279.8,273.2 -117.9,63.5 -252.4,95.5 -403.1,95.5 -222.1,0 -405.5,-67.3 -550.6,-201.6 -144.3,-134.3 -216.9,-304.9 -216.9,-511.5 0,-207.1 72.6,-378.1 217.4,-512.4 145.4,-134.2 328.3,-201.6 549.5,-201.6 137.2,0 262.4,27.4 375.2,82.5 112.9,55.2 204.7,133.9 275.3,235.8l-154.7 101c-46.2,-81.2 -113.7,-145.2 -201.2,-191.2 -87.7,-45.8 -185.8,-68.9 -294,-68.9 -166.7,0 -304.6,52.5 -413.9,157.4 -109.1,104.8 -163.7,237.5 -163.7,397.4 0,160.3 54.6,293 163.7,397.4 109.3,104.4 247.2,156.7 413.9,156.7 116.4,0 219.6,-26.6 310,-79.3 90.3,-52.5 165.2,-129.6 224.3,-231.5z"/>
  </g>
 </g>
</svg>
